<?xml version="1.0" encoding="utf-8"?>
<!-- Generator: Adobe Illustrator 24.0.0, SVG Export Plug-In . SVG Version: 6.00 Build 0)  -->
<svg version="1.1" id="Layer_1" xmlns="http://www.w3.org/2000/svg" xmlns:xlink="http://www.w3.org/1999/xlink" x="0px" y="0px"
	 viewBox="0 0 24 24" style="enable-background:new 0 0 24 24;" xml:space="preserve">
<style type="text/css">
	.st0{fill:#7C7C7C;}
</style>
<path class="st0" d="M12,22.4c-0.3,0-0.7-0.1-0.9-0.3c-1-0.8-1.9-1.6-2.7-2.3l0,0c-2.4-2.1-4.5-3.8-6-5.6C0.8,12.2,0,10.3,0,8.3
	c0-2,0.7-3.8,1.9-5.1c1.2-1.3,2.9-2.1,4.8-2.1c1.4,0,2.7,0.4,3.8,1.3C11,2.8,11.5,3.4,12,4c0.5-0.6,1-1.2,1.5-1.6
	c1.1-0.9,2.4-1.3,3.8-1.3c1.9,0,3.6,0.7,4.8,2.1C23.3,4.5,24,6.3,24,8.3c0,2-0.8,3.9-2.4,5.8c-1.5,1.8-3.5,3.5-6,5.6
	c-0.8,0.7-1.8,1.5-2.7,2.4C12.7,22.3,12.3,22.4,12,22.4z M6.7,2.5c-1.5,0-2.8,0.6-3.8,1.6c-1,1.1-1.5,2.6-1.5,4.2
	c0,1.7,0.6,3.2,2.1,5c1.4,1.7,3.4,3.4,5.8,5.4l0,0c0.8,0.7,1.8,1.5,2.7,2.4c1-0.9,1.9-1.7,2.8-2.4c2.4-2,4.4-3.8,5.8-5.4
	c1.4-1.7,2.1-3.2,2.1-5c0-1.6-0.5-3.1-1.5-4.2c-1-1.1-2.3-1.6-3.8-1.6c-1.1,0-2,0.3-2.9,1c-0.8,0.6-1.3,1.3-1.6,1.9
	c-0.2,0.3-0.4,0.4-0.8,0.4s-0.6-0.2-0.8-0.4c-0.3-0.5-0.9-1.3-1.6-1.9C8.8,2.8,7.8,2.5,6.7,2.5z"/>
</svg>
