<?xml version="1.0" encoding="utf-8"?>
<!-- Generator: Adobe Illustrator 21.0.0, SVG Export Plug-In . SVG Version: 6.00 Build 0)  -->
<svg version="1.1" id="Layer_1" xmlns="http://www.w3.org/2000/svg" xmlns:xlink="http://www.w3.org/1999/xlink" x="0px" y="0px"
	 viewBox="0 0 24 24" style="enable-background:new 0 0 24 24;" xml:space="preserve">
<style type="text/css">
	.st0{fill:#666666;}
</style>
<path class="st0" d="M22,8.4h-6.6c0-0.2,0-0.5,0-0.7C15.5,3.5,12,0,7.7,0C6.4,0,5,0.4,3.9,1C3.6,1.2,3.6,1.4,3.7,1.7
	C3.8,1.9,4.1,2,4.3,1.8c1-0.6,2.2-0.9,3.4-0.9c3.7,0,6.8,3,6.8,6.8s-3,6.8-6.8,6.8c-1.6,0-3-0.5-4.3-1.5c-0.1-0.1-0.3-0.1-0.4-0.1
	l-1.2,0.3l0.5-1.1c0.1-0.2,0.1-0.3,0-0.5c-0.8-1.2-1.3-2.5-1.3-4c0-1.2,0.3-2.4,0.9-3.4C2,4.1,1.9,3.8,1.7,3.7S1.2,3.6,1,3.9
	C0.4,5,0,6.4,0,7.7c0,1.6,0.5,3,1.3,4.3l-0.8,1.7c-0.1,0.2,0,0.4,0.1,0.5s0.3,0.2,0.5,0.2l2-0.5c1.3,1,3,1.6,4.7,1.6
	c0.4,0,0.7,0,1.1-0.1v4.1c0,1.1,0.9,2,2,2h6.6l3,2.4c0.1,0.1,0.2,0.1,0.3,0.1c0.1,0,0.1,0,0.2,0c0.2-0.1,0.3-0.2,0.3-0.4v-2.1H22
	c1.1,0,2-0.9,2-2v-9.1C24,9.3,23.1,8.4,22,8.4z M23.1,19.5c0,0.6-0.5,1-1,1h-1.4c-0.3,0-0.5,0.2-0.5,0.5v1.5l-2.3-1.9
	c-0.1-0.1-0.2-0.1-0.5-0.1h-6.6c-0.6,0-1-0.5-1-1v-4.3c2.8-0.7,4.9-3,5.5-5.8H22c0.6,0,1,0.5,1,1V19.5z"/>
<path class="st0" d="M18.7,16.3c0.2-0.1,0.3-0.2,0.3-0.4c0-0.3-0.2-0.5-0.5-0.5h-0.2L16.8,12c-0.1-0.2-0.2-0.3-0.4-0.3
	S16.1,11.8,16,12l-1.5,3.4h-0.2c-0.3,0-0.5,0.2-0.5,0.5c0,0.2,0.1,0.3,0.3,0.4l-0.6,1.3c-0.1,0.2,0,0.5,0.2,0.6
	c0.2,0.1,0.5,0,0.6-0.2l0.7-1.6h2.7l0.7,1.6c0.1,0.2,0.2,0.3,0.4,0.3c0.1,0,0.1,0,0.2,0c0.2-0.1,0.3-0.4,0.2-0.6L18.7,16.3z
	 M15.5,15.4l0.9-2.1l0.9,2.1H15.5z"/>
<path class="st0" d="M2.6,3.1c0.1,0,0.2-0.1,0.3-0.1C3,2.8,3.1,2.7,3.1,2.6c0-0.1-0.1-0.2-0.1-0.3C2.8,2.2,2.7,2.1,2.6,2.1
	c-0.1,0-0.2,0.1-0.3,0.1C2.2,2.4,2.1,2.5,2.1,2.6c0,0.1,0.1,0.2,0.1,0.3C2.4,3,2.5,3.1,2.6,3.1z"/>
<path class="st0" d="M4.9,10.6c-0.2,0.1-0.3,0.4-0.2,0.6c0.1,0.2,0.2,0.2,0.4,0.2c0.1,0,0.2,0,0.2-0.1c1-0.6,1.8-1.5,2.3-2.5
	C8.2,9.9,9,10.8,10,11.4c0.1,0,0.1,0.1,0.2,0.1c0.2,0,0.3-0.1,0.4-0.2c0.1-0.2,0-0.5-0.2-0.6c-1.2-0.7-2-1.9-2.3-3.2h2.1
	c0.3,0,0.5-0.2,0.5-0.5s-0.2-0.5-0.5-0.5H8.2v-2C8.2,4.2,8,4,7.7,4S7.2,4.2,7.2,4.5v2H5.5c-0.3,0-0.5,0.2-0.5,0.5s0.2,0.5,0.5,0.5
	h1.6C7,8.7,6.2,9.9,4.9,10.6z"/>
</svg>
