<?xml version="1.0" encoding="utf-8"?>
<!-- Generator: Adobe Illustrator 21.0.0, SVG Export Plug-In . SVG Version: 6.00 Build 0)  -->
<svg version="1.1" id="Layer_1" xmlns="http://www.w3.org/2000/svg" xmlns:xlink="http://www.w3.org/1999/xlink" x="0px" y="0px"
	 viewBox="0 0 24 24" style="enable-background:new 0 0 24 24;" xml:space="preserve">
<style type="text/css">
	.st0{fill:#666666;}
</style>
<path class="st0" d="M2.7,0.9C2.4,1.3,2.3,1.7,2.3,2.2v19.6c0,0.5,0.1,0.9,0.4,1.3l10.6-11.1L2.7,0.9z"/>
<path class="st0" d="M14.3,10.9l3.5-3.6l-12.1-7C5.1,0,4.5-0.1,3.9,0.1L14.3,10.9z"/>
<path class="st0" d="M14.3,12.9L3.8,23.9C4,24,4.3,24,4.5,24c0.4,0,0.8-0.1,1.1-0.3l12.2-7.1L14.3,12.9z"/>
<path class="st0" d="M22.5,10.1L19,8l-3.7,3.9l3.8,4l3.5-2c0.7-0.4,1.1-1.1,1.1-1.9C23.7,11.2,23.2,10.5,22.5,10.1z"/>
</svg>
