<?xml version="1.0" encoding="utf-8"?>
<!-- Generator: Adobe Illustrator 21.0.0, SVG Export Plug-In . SVG Version: 6.00 Build 0)  -->
<svg version="1.1" id="Layer_1" xmlns="http://www.w3.org/2000/svg" xmlns:xlink="http://www.w3.org/1999/xlink" x="0px" y="0px"
	 viewBox="0 0 24 24" style="enable-background:new 0 0 24 24;" xml:space="preserve">
<style type="text/css">
	.st0{fill:#666666;}
</style>
<path class="st0" d="M23.5,2.1H5.8c-0.6,0-0.6,0.9,0,0.9h17.3v6h-9.7c-0.2-0.5-0.5-0.8-1-0.9c-0.6-0.1-1.3,0.3-1.6,0.9H0.9v-6h1
	c0.6,0,0.6-0.9,0-0.9H0.5C0.2,2.1,0,2.4,0,2.6v7c0,0.3,0.2,0.5,0.5,0.5h10.3l1.6,4.1c-0.4-0.3-1-0.6-1.6-0.5
	c-0.4,0.1-0.7,0.3-0.8,0.6c-0.5,1,0.5,1.9,1.1,2.4c0.7,0.7,1.2,1.5,1.6,2.5c0.4,1,1.3,1.4,2,1.7c0.1,0,0.2,0.1,0.3,0.1
	c0.2,0.1,0.4,0.3,0.5,0.5c0.2,0.5,0.5,0.8,1,1c0.4,0.2,0.9,0.2,1.4,0l3.1-1.2c0.5-0.2,0.9-0.6,1.2-1.1c0.2-0.5,0.2-1.1,0.1-1.6
	c-0.1-0.1,0-0.3,0.1-0.6c0.1-0.3,0.2-0.7,0-1.1l-1.8-5c0,0,0,0,0,0c-0.3-0.8-1.1-1-1.7-0.8c-0.2,0.1-0.3,0.2-0.5,0.3
	c-0.1-0.4-0.3-0.7-0.6-0.9c-0.3-0.2-0.7-0.2-1-0.1c-0.2,0.1-0.4,0.2-0.5,0.3c-0.2-0.3-0.5-0.5-0.9-0.6c-0.4-0.1-0.8,0-1.1,0.2
	l-0.2-0.6h9.8c0.3,0,0.5-0.2,0.5-0.5v-7C24,2.4,23.8,2.1,23.5,2.1z M18,14c0.2,0.6,1.1,0.2,0.9-0.3L18.6,13
	c-0.2-0.5,0.5-1.1,0.8-0.5l1.8,5c0,0,0,0,0,0c0,0.1,0,0.3-0.1,0.5c-0.1,0.3-0.2,0.7,0,1.1c0,0,0,0,0,0c0.1,0.3,0.1,0.6,0,0.9
	c-0.1,0.3-0.3,0.5-0.6,0.6l-3.1,1.2c-0.4,0.2-1-0.1-1.1-0.5c-0.1-0.3-0.3-0.5-0.5-0.7c-0.2-0.2-0.5-0.3-0.8-0.5
	c-0.7-0.3-1.3-0.6-1.5-1.2c-0.4-1.1-0.9-2-1.8-2.8c-0.4-0.4-1-0.9-0.9-1.3c0.3-0.5,1.2,0.2,1.4,0.4c0.5,0.4,0.8,0.9,1.1,1.5
	c0.3,0.5,1,0.1,0.8-0.4l-2.5-6.6c-0.2-0.5,0.6-0.8,0.8-0.3l1.9,5.2c0.2,0.6,1.1,0.2,0.9-0.3l-0.9-2.5c-0.2-0.5,0.7-0.6,0.8-0.2
	l1,2.6c0.2,0.6,1.1,0.2,0.9-0.3l-0.6-1.6c-0.2-0.4,0.5-1.1,0.7-0.5L18,14z"/>
<path class="st0" d="M4,5.8C4,6,4.1,6.3,4.4,6.4c0.1,0.1,0.3,0.1,0.4,0.2C4.8,6.7,5,6.7,5,6.9C4.9,7,4.8,7,4.7,7
	C4.5,7,4.5,6.9,4.3,6.8C4.2,6.7,4,6.8,3.9,7c0,0.2,0.1,0.3,0.3,0.4c0.4,0.2,0.9,0.2,1.2-0.1c0.4-0.3,0.3-0.9,0-1.2
	C5.2,6.1,5.1,6,4.9,5.9c-0.1,0-0.2-0.1-0.3-0.2C4.6,5.5,4.9,5.6,5,5.6c0.2,0.1,0.5,0.2,0.6-0.1C5.7,5.1,5.1,5,4.9,5
	C4.6,5,4.4,5.1,4.2,5.2C4.1,5.3,4,5.5,4,5.8z"/>
<path class="st0" d="M6.4,5C6.3,4.9,5.9,5,5.9,5.2v1.5C5.9,7,6,7.2,6.1,7.3c0.2,0.1,0.4,0.2,0.6,0.2c0.2,0,0.5-0.1,0.6-0.2
	C7.6,7.2,7.7,7,7.7,6.7V5.2c0-0.3-0.6-0.3-0.6,0v1.5C7,6.9,6.9,7,6.8,7S6.5,6.9,6.5,6.7c0,0,0-1.5,0-1.5C6.5,5.2,6.5,5.1,6.4,5z"/>
<path class="st0" d="M9.7,5.7C9.7,5.4,9.6,5,9,5H8.3C8.2,5,8,5.1,8,5.2v2.1c0,0.2,0.2,0.2,0.3,0.2H9c0.2,0,0.4-0.1,0.5-0.2
	C9.7,7.2,9.8,7,9.8,6.8c0-0.2,0-0.3-0.1-0.5c0-0.1-0.1-0.1-0.2-0.1C9.6,6.1,9.7,5.9,9.7,5.7z M9,5.9c0,0-0.1,0-0.1,0.1
	c0,0-0.2,0-0.2,0V5.6h0.3C9.1,5.6,9.1,5.7,9,5.9C9,5.8,9,5.9,9,5.9z M9.1,6.7c0,0.1,0,0.3-0.2,0.3H8.7V6.4h0.3
	C9,6.4,9.1,6.5,9.1,6.7z"/>
<path class="st0" d="M10.9,6.9c-0.1,0.1-0.3,0.1-0.4,0c-0.1-0.1-0.2-0.2-0.3-0.2C10,6.7,9.9,7,9.9,7.2c0,0.1,0.1,0.2,0.2,0.2
	c0.4,0.2,0.9,0.2,1.2-0.1c0.4-0.3,0.3-0.9,0-1.2c-0.1-0.1-0.3-0.2-0.4-0.2c-0.1,0-0.3-0.1-0.3-0.2c0-0.2,0.3-0.1,0.4-0.1
	c0.2,0.1,0.4,0.2,0.5-0.1C11.7,5.1,11.2,5,10.9,5c-0.2,0-0.5,0.1-0.6,0.2C10.1,5.3,10,5.5,10,5.8c0,0.3,0.2,0.5,0.4,0.7
	c0.1,0.1,0.3,0.1,0.5,0.2C10.9,6.7,11.1,6.8,10.9,6.9z"/>
<path class="st0" d="M12.8,5.6c0.1,0,0.2,0.1,0.2,0.2C13,6,13.1,6,13.2,6c0.1,0,0.2,0,0.3-0.1c0.1-0.1,0.1-0.2,0.1-0.3
	c0-0.2-0.1-0.4-0.3-0.5C13.2,5.1,13,5,12.7,5c-0.2,0-0.5,0.1-0.6,0.2c-0.2,0.1-0.2,0.4-0.2,0.6v0.9c0,0.3,0.1,0.5,0.2,0.6
	c0.3,0.3,0.9,0.3,1.2,0c0.2-0.1,0.3-0.3,0.3-0.6c0-0.1,0-0.2-0.1-0.3c-0.1-0.1-0.2-0.1-0.3-0.1c-0.1,0-0.3,0.1-0.3,0.2
	c0,0.3-0.4,0.4-0.4,0V5.9C12.5,5.6,12.7,5.6,12.8,5.6z"/>
<path class="st0" d="M15.7,5.8c0-0.6-0.5-0.8-0.9-0.8h-0.7c-0.1,0-0.2,0.1-0.2,0.2v2.1c0,0.3,0.6,0.3,0.6,0V6.6h0.1l0.4,0.8
	c0.1,0.1,0.3,0.2,0.4,0.1c0.1-0.1,0.3-0.2,0.2-0.4l-0.4-0.6C15.5,6.3,15.7,6.1,15.7,5.8z M15,5.8c0,0.1-0.1,0.2-0.2,0.2h-0.2V5.6
	h0.2C14.9,5.6,15,5.7,15,5.8z"/>
<path class="st0" d="M16.3,7.5c0.1,0,0.3-0.1,0.3-0.2V5.2c0-0.3-0.6-0.3-0.6,0v2.1C15.9,7.5,16.1,7.5,16.3,7.5z"/>
<path class="st0" d="M18.6,5.7c0-0.3-0.1-0.7-0.7-0.7h-0.7C17.1,5,17,5.1,17,5.2v2.1c0,0.2,0.2,0.2,0.3,0.2H18
	c0.2,0,0.4-0.1,0.5-0.2c0.1-0.1,0.2-0.3,0.2-0.6c0-0.2,0-0.3-0.1-0.5c0-0.1-0.1-0.1-0.2-0.1C18.6,6.1,18.6,5.9,18.6,5.7z M17.9,5.9
	C17.9,5.9,17.9,5.9,17.9,5.9l-0.3,0V5.6h0.3C18,5.6,18,5.8,17.9,5.9z M18,6.7c0,0.1,0,0.3-0.2,0.3h-0.3V6.4h0.3
	C17.9,6.4,18,6.5,18,6.7z"/>
<path class="st0" d="M20.4,5.6c0.3,0,0.3-0.6,0-0.6h-1.2C19.1,5,19,5.1,19,5.2v2.1c0,0.2,0.2,0.2,0.3,0.2h1.2c0.3,0,0.3-0.6,0-0.6
	h-0.8V6.5H20c0.3,0,0.3-0.5,0-0.5h-0.4V5.6H20.4z"/>
<path class="st0" d="M15.3,16.4c0.1,0.2,0.4,0.4,0.6,0.3c0.2-0.1,0.4-0.4,0.3-0.6c-0.1-0.2-0.4-0.4-0.6-0.3
	C15.3,15.8,15.2,16.1,15.3,16.4z"/>
<path class="st0" d="M3.5,2.8C3.6,3,3.9,3.2,4.1,3.1C4.3,3,4.5,2.7,4.4,2.4C4.3,2.2,4,2.1,3.7,2.2C3.5,2.3,3.4,2.6,3.5,2.8z"/>
</svg>
