<?xml version="1.0" encoding="utf-8"?>
<!-- Generator: Adobe Illustrator 21.0.0, SVG Export Plug-In . SVG Version: 6.00 Build 0)  -->
<svg version="1.1" id="Capa_1" xmlns="http://www.w3.org/2000/svg" xmlns:xlink="http://www.w3.org/1999/xlink" x="0px" y="0px"
	 viewBox="0 0 24 24" style="enable-background:new 0 0 24 24;" xml:space="preserve">
<style type="text/css">
	.st0{fill:#666666;}
</style>
<g>
	<g>
		<path class="st0" d="M19.5,6.7c-0.3-1.5-1-2.9-2.2-4c-1.3-1.2-3-1.8-4.7-1.8C11.3,0.9,10,1.3,8.9,2C8,2.6,7.2,3.4,6.6,4.4
			c-0.2,0-0.5-0.1-0.7-0.1C3.8,4.3,2.1,6,2.1,8.1c0,0.3,0,0.5,0.1,0.8C0.8,9.9,0,11.5,0,13.2c0,1.4,0.5,2.7,1.4,3.7
			c1,1.1,2.2,1.7,3.6,1.8c0,0,0,0,0,0h4.2c0.4,0,0.7-0.3,0.7-0.7s-0.3-0.7-0.7-0.7H5c-2-0.1-3.7-2-3.7-4.2c0-1.4,0.8-2.7,2-3.4
			C3.6,9.6,3.7,9.3,3.6,9C3.5,8.7,3.4,8.4,3.4,8.1c0-1.4,1.1-2.5,2.5-2.5c0.3,0,0.6,0,0.8,0.1c0.3,0.1,0.7,0,0.8-0.3
			c0.9-2,2.9-3.2,5.1-3.2c2.9,0,5.3,2.2,5.6,5.1c0,0.3,0.3,0.5,0.6,0.6c2.2,0.4,3.9,2.4,3.9,4.7c0,2.5-1.9,4.6-4.3,4.8h-3.6
			c-0.4,0-0.7,0.3-0.7,0.7s0.3,0.7,0.7,0.7h3.7c0,0,0,0,0,0c1.5-0.1,2.9-0.8,4-2c1-1.1,1.6-2.6,1.6-4.1C24,9.8,22.1,7.4,19.5,6.7z"
			/>
		<path class="st0" d="M16,13.8c0.3-0.3,0.3-0.7,0-0.9l-3.5-3.5c-0.1-0.1-0.3-0.2-0.5-0.2c-0.2,0-0.3,0.1-0.5,0.2L8,12.9
			c-0.3,0.3-0.3,0.7,0,0.9C8.1,13.9,8.3,14,8.5,14c0.2,0,0.3-0.1,0.5-0.2l2.4-2.4v11c0,0.4,0.3,0.7,0.7,0.7s0.7-0.3,0.7-0.7v-11
			l2.4,2.4C15.3,14.1,15.7,14.1,16,13.8z"/>
	</g>
</g>
</svg>
